<?xml version="1.0" encoding="UTF-8"?>
<svg id="Layer_2" data-name="Layer 2" xmlns="http://www.w3.org/2000/svg" viewBox="0 0 74.4 115.36">
  <defs>
    <style>
      .cls-1 {
        fill: #005bdc;
      }

      .cls-2 {
        fill: #0077f0;
      }

      .cls-3 {
        fill: #7fb2f9;
      }

      .cls-4 {
        fill: #3d90f4;
      }
    </style>
  </defs>
  <g id="Layer_1-2" data-name="Layer 1">
    <g>
      <path class="cls-1" d="M3.08,104.99c5.49,3.2,16.48,8.61,31.33,9.33,18.64,.9,32.46-6.12,38-9.33-1.56-32.22-3.11-64.44-4.67-96.66H7.74L3.08,104.99Z"/>
      <path class="cls-1" d="M71.98,58.27H2.42L0,104.99s30.05,23.33,74.4,0l-2.42-46.71Z"/>
      <path class="cls-4" d="M5.56,54.83c-.04,.52-.04,1.04,0,1.55-.12,.25-.18,.5-.18,.75,0,3.97,14.5,7.19,32.4,7.19s32.4-3.22,32.4-7.19c0-.39,.21,.83-.07,.46,.02-.07-.19-2.21-.18-2.39,1.59,.95,2.47,1.99,2.47,3.08,0,4.6-15.67,8.33-34.99,8.33S2.42,62.87,2.42,58.27c0-1.23,1.13-2.4,3.14-3.45Z"/>
      <path class="cls-2" d="M0,104.99L2.42,58.27c.94,1.09,2.44,2.58,4.58,3.85,3.01,1.79,5.77,2.22,8.13,2.57,7.14,1.04,10.71,1.56,14.46,1.7,5.38,.19,12.57,.21,21.2-.42-2.34,10.62-6.32,23.27-13.24,36.57-2.38,4.59-4.88,8.79-7.38,12.62-3.3-.24-7.08-.87-11.24-1.84-6.26-1.46-13.8-4-18.93-8.34Z"/>
      <path class="cls-2" d="M60.94,13.63s-3,39.05-9.08,49.98c0,0-40.42,3.66-46.47-6.48L7.67,8.33l53.27,5.3Z"/>
      <ellipse class="cls-4" cx="37.74" cy="8.33" rx="30.07" ry="8.33"/>
      <ellipse class="cls-2" cx="37.74" cy="8.33" rx="16.37" ry="4.54"/>
      <path class="cls-3" d="M3.08,57.3c1.08,.84,2.65,1.97,4.68,3.05,1.71,.91,4.46,2.17,9.04,3.2,8.59,1.92,18.41,1.84,21.25,1.79-6.01,.2-11.31,.09-15.75-.15,0,0-7.43-.39-13.01-2.64-.51-.2-1.05-.45-1.65-.8-2.32-1.35-3.74-3.17-4.56-4.44Z"/>
      <path class="cls-1" d="M50.17,10.33c0-1.9-5.57-3.44-12.43-3.44s-12.43,1.54-12.43,3.44c0,.42,.28,.81,.77,1.18,2.97,.84,7.1,1.35,11.67,1.35s8.7-.52,11.67-1.35c.49-.37,.77-.77,.77-1.18Z"/>
      <path class="cls-3" d="M26.89,14.77s2.42,0,2.44-.28c.03-.36-4.68-.56-8.13-3.2-.08-.06-.14-.11-.19-.15-1.83-1.48-2.95-3.15-3.6-4.32-2.47,.06-4.94,.11-7.42,.17,.29,1.74,.97,2.83,1.44,3.44,1.69,2.18,4.31,2.82,7.33,3.56,.46,.11,1.81,.42,3.55,.6,1.6,.17,2.99,.17,4.56,.17Z"/>
      <path class="cls-3" d="M18,5.66s5.63-2.12,10-1.87l-3.13-2.13c-1.3-.02-2.77,.06-4.36,.31-4.31,.68-7.64,2.33-9.84,3.69h7.33Z"/>
    </g>
  </g>
</svg>