<?xml version="1.0" encoding="UTF-8"?>
<svg id="Layer_2" data-name="Layer 2" xmlns="http://www.w3.org/2000/svg" viewBox="0 0 44.27 44.27">
  <defs>
    <style>
      .cls-1 {
        fill: #fff;
      }

      .cls-2 {
        fill: #f75959;
      }

      .cls-3 {
        fill: red;
      }
    </style>
  </defs>
  <g id="Layer_1-2" data-name="Layer 1">
    <g>
      <circle class="cls-2" cx="22.13" cy="22.13" r="22.13"/>
      <path class="cls-3" d="M37.22,5.94c.61,2.02,.94,4.17,.94,6.39,0,12.22-9.91,22.13-22.13,22.13-5.83,0-11.13-2.26-15.08-5.94,2.74,9.11,11.19,15.75,21.19,15.75,12.22,0,22.13-9.91,22.13-22.13,0-6.4-2.72-12.15-7.05-16.19Z"/>
      <path class="cls-1" d="M26.03,5.21c-.04-1.15-8.28-3.81-14.13,0-5.19,3.38-6.57,10.59-5.59,11.19,.78,.48,2.69-3.57,8.24-6.94,6.27-3.81,11.52-3.32,11.48-4.24Z"/>
    </g>
  </g>
</svg>